<svg width="22" height="16" viewBox="0 0 22 16" fill="none" xmlns="http://www.w3.org/2000/svg">
<path d="M9.75195 13.0566V15H2.20312V13.0566H9.75195ZM2.89648 0.78125V15H0.445312V0.78125H2.89648ZM8.76562 6.71875V8.63281H2.20312V6.71875H8.76562ZM9.70312 0.78125V2.73438H2.20312V0.78125H9.70312ZM19.2344 11.3379C19.2344 11.0449 19.1888 10.7845 19.0977 10.5566C19.013 10.3288 18.86 10.1204 18.6387 9.93164C18.4173 9.74284 18.1048 9.56055 17.7012 9.38477C17.304 9.20247 16.7962 9.01693 16.1777 8.82812C15.5007 8.61979 14.8757 8.38867 14.3027 8.13477C13.7363 7.87435 13.2415 7.57487 12.8184 7.23633C12.3952 6.89128 12.0664 6.4974 11.832 6.05469C11.5977 5.60547 11.4805 5.08789 11.4805 4.50195C11.4805 3.92253 11.6009 3.39518 11.8418 2.91992C12.0892 2.44466 12.4375 2.03451 12.8867 1.68945C13.3424 1.33789 13.8796 1.06771 14.498 0.878906C15.1165 0.683594 15.8001 0.585938 16.5488 0.585938C17.6035 0.585938 18.5117 0.78125 19.2734 1.17188C20.0417 1.5625 20.6309 2.08659 21.041 2.74414C21.4577 3.40169 21.666 4.1276 21.666 4.92188H19.2344C19.2344 4.45312 19.1335 4.03971 18.9316 3.68164C18.7363 3.31706 18.4368 3.0306 18.0332 2.82227C17.6361 2.61393 17.1315 2.50977 16.5195 2.50977C15.9401 2.50977 15.4583 2.59766 15.0742 2.77344C14.6901 2.94922 14.4036 3.18685 14.2148 3.48633C14.026 3.78581 13.9316 4.12435 13.9316 4.50195C13.9316 4.76888 13.9935 5.01302 14.1172 5.23438C14.2409 5.44922 14.4297 5.65104 14.6836 5.83984C14.9375 6.02214 15.2565 6.19466 15.6406 6.35742C16.0247 6.52018 16.4772 6.67643 16.998 6.82617C17.7858 7.06055 18.4727 7.32096 19.0586 7.60742C19.6445 7.88737 20.1328 8.20638 20.5234 8.56445C20.9141 8.92253 21.207 9.32943 21.4023 9.78516C21.5977 10.2344 21.6953 10.7454 21.6953 11.3184C21.6953 11.9173 21.5749 12.4577 21.334 12.9395C21.0931 13.4147 20.748 13.8216 20.2988 14.1602C19.8561 14.4922 19.3223 14.7493 18.6973 14.9316C18.0788 15.1074 17.3887 15.1953 16.627 15.1953C15.9434 15.1953 15.2695 15.1042 14.6055 14.9219C13.9479 14.7396 13.349 14.4629 12.8086 14.0918C12.2682 13.7142 11.8385 13.2454 11.5195 12.6855C11.2005 12.1191 11.041 11.4583 11.041 10.7031H13.4922C13.4922 11.1654 13.5703 11.5592 13.7266 11.8848C13.8893 12.2103 14.1139 12.4772 14.4004 12.6855C14.6868 12.8874 15.0189 13.0371 15.3965 13.1348C15.7806 13.2324 16.1908 13.2812 16.627 13.2812C17.1999 13.2812 17.6784 13.1999 18.0625 13.0371C18.4531 12.8743 18.7461 12.6465 18.9414 12.3535C19.1367 12.0605 19.2344 11.722 19.2344 11.3379Z" fill="white"/>
</svg>
