<svg width="18" height="17" viewBox="0 0 18 17" fill="none" xmlns="http://www.w3.org/2000/svg">
<path d="M12.8542 10.7973H12.0971L11.8287 10.5547C12.7679 9.53021 13.3333 8.20021 13.3333 6.75339C13.3333 3.52724 10.5446 0.91217 7.10417 0.91217C3.66375 0.91217 0.875 3.52724 0.875 6.75339C0.875 9.97954 3.66375 12.5946 7.10417 12.5946C8.64708 12.5946 10.0654 12.0644 11.1579 11.1837L11.4167 11.4353V12.1453L16.2083 16.6295L17.6362 15.2905L12.8542 10.7973ZM7.10417 10.7973C4.71792 10.7973 2.79167 8.99102 2.79167 6.75339C2.79167 4.51575 4.71792 2.70947 7.10417 2.70947C9.49042 2.70947 11.4167 4.51575 11.4167 6.75339C11.4167 8.99102 9.49042 10.7973 7.10417 10.7973Z" fill="#555555"/>
</svg>
