<svg width="25" height="25" viewBox="0 0 25 25" fill="none" xmlns="http://www.w3.org/2000/svg">
<path d="M12.5 24.1667C9.26736 24.1667 6.51476 23.0304 4.24219 20.7578C1.96962 18.4853 0.833336 15.7326 0.833336 12.5C0.833336 9.26737 1.96962 6.51477 4.24219 4.2422C6.51476 1.96963 9.26736 0.833344 12.5 0.833344C14.566 0.833344 16.3767 1.25261 17.9323 2.09116C19.4879 2.9297 20.8368 4.07814 21.9792 5.53647V0.833344H24.1667V10.0938H14.9063V7.90626H21.0313C20.1076 6.44793 18.9288 5.26911 17.4948 4.3698C16.0608 3.4705 14.3958 3.02084 12.5 3.02084C9.8507 3.02084 7.60851 3.93838 5.77344 5.77345C3.93837 7.60852 3.02084 9.85071 3.02084 12.5C3.02084 15.1493 3.93837 17.3915 5.77344 19.2266C7.60851 21.0616 9.8507 21.9792 12.5 21.9792C14.5174 21.9792 16.3646 21.4019 18.0417 20.2474C19.7188 19.0929 20.8854 17.5677 21.5417 15.6719H23.8021C23.0972 18.224 21.6997 20.2778 19.6094 21.8333C17.5191 23.3889 15.1493 24.1667 12.5 24.1667Z" fill="white"/>
</svg>
